<?xml version="1.0" encoding="UTF-8"?>
<svg id="Capa_1" xmlns="http://www.w3.org/2000/svg" version="1.1" viewBox="0 0 2589.96 3055.66">
  <!-- Generator: Adobe Illustrator 29.4.0, SVG Export Plug-In . SVG Version: 2.1.0 Build 152)  -->
  <defs>
    <style>
      .st0 {
        fill: #fff;
      }

      .st1 {
        fill: #0589fb;
      }
    </style>
  </defs>
  <path class="st0" d="M1975.54,955.58c428.24-43.88,631.08,349.27,536.34,727.12-121.4,484.2-852.7,490.25-948.58-29.33-56.57-306.57,62-661.9,412.24-697.78ZM2003.41,1202.49c-192.95,32.8-190.67,524.48-26.31,588.21,302.78,117.4,345.92-642.54,26.31-588.21Z"/>
  <path class="st0" d="M853.57,1660.07c30.13,126.88,146.51,161.02,264.98,148.4,98.08-10.45,115.73-97.64,22.51-142.67-159.38-77-376.64-49.32-455.37-258.26-133.19-353.48,311.93-604.27,567.12-355.15l24.69-70.62h180.17l10.6,10.6v332.09l-10.4,8.5-175.73.94c-10.57-3.67-32.29-53.85-44.13-68.87-45.77-58.08-143.44-97.33-216.78-83.76-68.35,12.64-98.67,94.31-32.79,135.5,60.62,37.9,202.73,59.14,278.64,88.77,151.3,59.07,249.31,162.77,235.59,334.9-24.15,303.17-429.1,391.37-631.49,202.3l-17.63,70.62h-183.71v-353.28h183.71Z"/>
  <polygon class="st0" points="472.02 1214.94 472.02 1780.19 592.14 1787.25 592.14 2013.35 55.15 2013.35 55.15 1780.19 168.2 1780.19 168.2 1214.94 55.15 1214.94 55.15 974.7 581.54 974.7 592.14 985.3 592.14 1204.34 581.54 1214.94 472.02 1214.94"/>
  <path class="st0" d="M1277.51,656.75c-96.4,3.18-188.69-25.86-282.31-42.24l-57.06,211.62c-7.74,1.73-15.18-.33-22.77-1.69-14.01-2.52-19.52-2.53-19.2-15.11.88-35.57,58.9-192.53,55.76-205l-186.2-82.27-159.27,300.91-24.16,2.77-11.4-16.72c41.15-108.7,101.1-208.66,156.06-310.59l-137.61-95.77c-120.23,127.03-243.4,257.11-309.13,422.56l-48.64-9.8c22.68-52.51,51.49-102.88,82.07-151.01C635.9,157.23,1189.84-85.19,1760.51,184.35c263.85,124.62,488.55,376.06,598.02,645.3-9.29,14.37-34.23,16.14-46.12,3.92-7.05-7.23-38.02-86.35-49.09-106.31-38.36-69.17-83.8-136.9-134.3-197.78-13.74-16.57-104.47-116.69-114.6-119.27-12.39-3.16-122.51,73.28-122.33,87.45.1,7.88,62.27,118.21,72.04,140.18,26.15,58.82,50.9,119.64,69.44,181.38l-38.4,6.2-138.62-309.67-190.46,77.49,63.12,225.33-31.34,14.66-77.48-224.97c-94.31,30.39-194.03,48.58-293.41,48.5v169.58h-49.46v-169.58ZM1277.51,112.69c-62.76,20.46-100.81,78.21-132.87,132.09-59.32,99.69-100.33,213-135.84,323.11,83.97,35.45,177.86,47.27,268.71,46.46V112.69ZM1326.97,112.69v501.66c96.06,1.33,191.36-19.44,282.73-46.02,3.75-33.9-97.81-248.38-121.6-288.22-37.78-63.29-90.94-140.58-161.14-167.42ZM1171.48,126.86c-116.51,38.62-220.77,149.36-296.53,243.92-13.53,16.89-85.95,111.3-77.62,123.12l169.54,61.06c39.03-110.7,77.97-221.6,135.36-324.3l69.24-103.79ZM1828.62,480.01c16.3-22.42-163.21-212.75-190.66-236.7-56.87-49.6-121.47-97.54-197.94-109.35,99.96,122.62,158.43,266.49,211.7,413.93l176.9-67.89ZM1044.34,148.09c-130.33,41.86-297.29,111.58-398.98,205.06-8.6,7.9-20.19,13.99-17.85,27.91l127.33,81.86c81.84-118.65,171.09-230.86,289.5-314.83ZM1623.73,176.35c97.58,76.93,175.35,171.58,243.65,275.06l102.32-74.25c1.83-8.4-34.05-34.58-42.77-41.3-87.98-67.77-198.52-123.25-303.21-159.52Z"/>
  <path class="st1" d="M1773.45,2629.16l.02,19c70.83,35.62,88.03,135.65,65.7,205.95-58.42,183.9-350.14,164.87-370.94-24.63-8.3-75.59,7.34-151.69,77.64-190.81-152.84-135.05-21.62-377.9,181.61-301.6,114.11,42.84,151.14,222.85,45.97,292.09ZM1635.92,2424.5c-81.76,17.85-81.24,195.92,46.39,166.71,82.59-18.9,66.69-191.41-46.39-166.71ZM1628.72,2693.17c-81.48,18.76-77.63,191.07,26.04,188.69,126.23-2.9,116.49-221.51-26.04-188.69Z"/>
  <path class="st1" d="M2266.7,2331.31l-7.07,98.92h-226.1v123.65c0,2.36-18.44,22.4,3.61,17.78,18.51-3.88,35.51-24.17,64.14-27.75,171.18-21.37,215.63,186.83,172.75,314.06-61.29,181.88-345.2,161.6-353.6-39.14l94.87-14.63c21.55,107.38,156.25,98.57,166.95-9.74,7.75-78.43-9.45-181.24-113.79-149.08-26.95,8.31-33.51,43.85-52.78,46.68l-81.12-7.44,7.1-353.32h325.02Z"/>
  <path class="st1" d="M860.68,2628.19c4.49,24.87,33.14,28.99,51.19,51.09,15.56,19.05,28.19,49.94,31.7,74.26,37.76,262.17-332.06,319.51-379.69,65.36l105.68-13.93c17.85,102.64,159.97,95.79,169.58-11.74,7.72-86.42-67.74-112.33-141.04-101.55l6.91-95.87c77.98,11.71,130.51-20.85,120.45-105.71-10.92-92.05-151.24-84.49-156.36,9.95l-91.11.85c-12.5-219.88,329.92-244.74,352.52-24.03,5.97,58.31-11.06,128.67-69.82,151.31Z"/>
  <path class="st1" d="M1009.01,2840.03l3.32-99.13,202.71-415.47,111.88,9.36-204.86,406.32h127.18v-197.84h98.92v194.31c8.88,19.8,59.17,6.11,63.62,10.56v91.92s-56.56-.04-56.56-.04v134.25h-105.98v-123.65l-10.6-10.6h-229.63Z"/>
  <path class="st1" d="M245.92,2423.16c46.55-8.75,100.67-80.57,136.22-93.71,16.35-6.04,55.04,7.55,75.78,1.82l-.03,643.01h-105.98v-494.6l-105.98,70.66v-127.18Z"/>
</svg>