<?xml version="1.0" encoding="UTF-8"?>
<svg id="Capa_1" xmlns="http://www.w3.org/2000/svg" version="1.1" viewBox="0 0 2589.96 3055.66">
  <!-- Generator: Adobe Illustrator 29.4.0, SVG Export Plug-In . SVG Version: 2.1.0 Build 152)  -->
  <defs>
    <style>
      .st0 {
        fill: #fff;
      }
    </style>
  </defs>
  <path class="st0" d="M2510.57,549.45v301.72h-146.89c-19.12,0-98.07,22.09-121.35,29.51-220.02,70.05-411.02,277.62-438.41,510.41h531.97v293.78h-531.97c36.28,233.73,218.71,432.6,446.54,494.35,19.33,5.24,74.42,21.75,89.41,21.75h158.8l8.94,11.62,3,290.13c-403.92,33.63-764.14-176.49-927.88-545.05-228.91-515.26,17.4-1172.67,558.51-1360.69,39.1-13.59,154.83-47.51,190.69-47.51h178.65Z"/>
  <path class="st0" d="M1081.38,549.45v301.72h-146.89c-58.74,0-181.5,52.58-234.38,83.22-405.25,234.79-448.24,852.59-74.95,1139.2,65.17,50.04,211.98,127.37,293.45,127.37h162.77v301.72h-170.71c-122.15,0-343.53-103.94-443.17-176.15C-148.93,1879.81-2.48,873.16,704.1,604.88c39.1-14.85,163.4-55.44,198.64-55.44h178.65Z"/>
</svg>