<?xml version="1.0" encoding="UTF-8"?>
<svg id="Capa_1" xmlns="http://www.w3.org/2000/svg" version="1.1" viewBox="0 0 2589.96 3055.66">
  <!-- Generator: Adobe Illustrator 29.4.0, SVG Export Plug-In . SVG Version: 2.1.0 Build 152)  -->
  <defs>
    <style>
      .st0 {
        fill: #fff;
      }

      .st1 {
        fill: #0589fb;
      }
    </style>
  </defs>
  <path class="st0" d="M2006.99,935.41c413.73-23.38,598.12,356.98,509.86,722.55-116.14,481.08-829.44,493.85-943.23-9.77-73.36-324.71,60.85-691.73,433.36-712.78ZM2013.66,1183.17c-176.69,30.34-171.13,358.72-124.14,482.38,48.96,128.86,206.56,157.23,283.4,38.45,90.94-140.57,81.06-562.1-159.26-520.82Z"/>
  <path class="st0" d="M852.71,1635.24c20.26,133.32,201.06,190.75,312.07,138.35,69.73-32.91,43.84-92.77-14.3-120.6-174.9-83.72-417-51.88-477.19-302.75-83.52-348.12,346.67-542.15,587.16-310.63l28.32-70.86h180.81v347.43h-191.44c-20.88-108.63-218.56-189.96-301.4-120.6-49.56,41.49-23.35,90.86,27.08,114.85,175.04,83.26,482.76,73.17,501.09,349.73,22.78,343.68-414.32,465.73-641.6,258.74-9.02,16.78-3.77,70.78-22.16,77.03-31.73,10.79-135.25-1.41-172.79-6.17v-354.52h184.35Z"/>
  <path class="st0" d="M590.36,961.66v233.98h-109.9c-10.12,6.22-9.78,14.13-11,24.46-18.72,159.44,15.01,354.91,0,518.32l11,24.46h109.9v223.35l-10.64,10.64H62.13l-10.64-10.64v-219.8l10.64-10.64h102.81v-542.42c0-2.48,12.58-7.86-3.55-17.73H51.49v-233.98h538.87Z"/>
  <path class="st0" d="M1278.13,649.68c-95.66,3.76-186.75-23.13-279.04-41.98-15.61,5.03-57.09,176.01-61.59,204.74l-42.27.28,56.77-226.8c-65.79-15.43-131.51-47.95-187.97-84.37-8,.05-70.92,114.09-80.19,131.71-15.23,28.96-69.93,161.16-82.75,172.5-11.83,10.46-25.22,7.13-39.06,6.96-11.53-11.43,77.33-184.46,90.92-210.35,21.39-40.73,45.37-81.71,72.01-119.34l-138.22-86.92c-104.69,92.13-190.46,198.91-259.94,319.71-21.1,36.69-32.22,103.57-80.32,97.08-23.39-3.15.18-43.21,6.79-57.16C393.35,460.24,692.83,195.47,1010.23,108.8c566.2-154.61,1124.42,188.83,1345.73,707.42.05,5.61-43.18,5.85-48.59,2.47-7.49-4.67-65.31-132.4-80.48-157.01-58.95-95.68-137.79-187.18-222.94-259.69l-114.07,80.98c55.13,101.6,106.82,205.38,144.16,315.13,5.58,18.27-41.3,18.02-46.14,13.9-5.6-4.77-38.87-115.62-49.13-138.72-9.7-21.86-80.78-170.38-90.29-172.43l-178.72,88.33c9.67,29.75,75.05,207.61,61.47,222.94l-34.68,7.79-63.95-219.86c-100.81,21.01-199.96,54.78-304.83,49.64v163.08h-49.63v-163.08ZM1278.13,110.81c-61.26,21.35-107.95,91.92-140.43,146.73-55.32,93.37-96.02,199.85-129.24,302.97,84.96,35.65,178.07,45.45,269.66,46.62V110.81ZM1327.77,110.81v496.33c94.46-4.01,198.71-11.04,283.01-53.76,6.05-24.35-130.87-288.78-155.18-325.78-30.41-46.29-71.1-104.16-127.83-116.79ZM1178.86,125.06c-7.55-6.18-84.8,37.93-98.67,46.61-87.38,54.7-230.31,195.44-284.19,283.05-3.45,5.61-10.26,6.62-7.1,17.6l177.15,78.09c49.98-150.83,112.56-300.76,212.8-425.35ZM1441.22,132.15c95.25,121.38,154.22,266.15,212.39,408.2l167.32-74.87c-86.33-141.61-212.42-290.07-379.71-333.33ZM1044.11,146.33c-153.47,38.98-296.86,115.27-418.16,216.19l123.24,81.06,124.6-152.16,170.32-145.1ZM1611.39,167.6c51.08,41.37,101.42,85.33,145.45,134.55,17.3,19.34,95.35,127.87,102.73,131.79,15.88,8.43,89.76-50.66,106.22-64.33-99.64-93.08-226.25-156.58-354.4-202.01Z"/>
  <path class="st1" d="M1078.03,2303.73c120.66-11.57,203.6,67.83,214.17,186.02,6.57,73.41,8.93,315.13-13.73,376.02-64.59,173.54-349.09,153.88-368.96-42.96-7.12-70.56-8.88-335.82,8.99-395,20.88-69.13,88.95-117.31,159.53-124.07ZM1077.73,2409.69c-32.03,6.42-56.68,42.44-61.51,73.29-9.08,57.92-7.38,257.78-.42,318.63,12.09,105.76,150.53,104.95,168.46-1.7,16.41-97.65-19.35-222.97-5.23-324.61-5.87-49.48-54.38-75.01-101.29-65.61Z"/>
  <path class="st1" d="M1567.34,2303.65c71.81-6.56,152.05,26.88,184.96,94.71,31.26,64.43,29.26,323.71,22.42,403.52-20.85,243.28-359.87,240.39-383.07,6.77-7.45-74.99-8.4-318.74,13.77-383.16,22.61-65.73,93.22-115.55,161.93-121.83ZM1567.11,2409.61c-40.79,6.66-61.73,43.47-67.32,81.88-9.01,61.95-9,232.8-1.88,295.96,13.57,120.4,151.11,122.84,168.49,19.55,9.92-58.93,8.39-248.02,1.72-310.3-5.84-54.52-42.97-96.58-101.02-87.1Z"/>
  <path class="st1" d="M532.66,2834.11c6.86,4.86,10.51,37.42,35.95,45.93,111.5,37.27,114.26-117.78,128.07-188.28-22.68,5.69-36.8,22.36-61.94,26.63-167.87,28.49-244.97-114.51-212.76-262.39,47.4-217.58,366.05-197.03,388.09,19.55,6.49,63.78-9.1,111.34-13.98,170.2-9.01,108.51.75,256.12-114.03,318.49-70.85,38.5-199.89,17.69-239.65-57.16-34.38-64.71,84.39-77.1,90.24-72.96ZM588.42,2409.75c-85.39,17.44-81,180.11-17.5,205.69,169.77,68.38,184.27-239.76,17.5-205.69Z"/>
  <path class="st1" d="M2079.35,2308.83v666.5h-106.36v-517.6c-43.88,3.88-71.78,52.35-113.45,63.81v-109.9c30.62-16.13,107.61-94.07,132.69-101.29,24.45-7.04,60.83,1.81,87.11-1.52Z"/>
</svg>